<svg class="vine-overlay-svg small-vines" viewBox="0 0 600 100" preserveAspectRatio="none" xmlns="http://www.w3.org/2000/svg">
    <!-- Organic Horizontal Vines -->
    <path class="vine-path" d="M20,45 Q150,20 300,50 T580,45" />
    <path class="vine-path shadow" d="M20,55 C100,80 200,30 300,60 C400,90 500,40 580,55" />
    <path class="vine-path" d="M30,35 Q300,60 570,35" />
    <!-- Organic Vertical Vines -->
    <path class="vine-path" d="M120,-10 Q140,40 120,90" />
    <path class="vine-path shadow" d="M350,-10 Q320,50 360,110" />
    <path class="vine-path" d="M520,-5 Q540,45 510,95" />

    <circle class="vine-flower" cx="150" cy="45" r="3" />
    <circle class="vine-flower" cx="450" cy="40" r="3" />
    <circle class="vine-flower" cx="280" cy="25" r="2.5" />
    <circle class="vine-flower" cx="380" cy="75" r="3" />
    <circle class="vine-flower" cx="500" cy="50" r="2" />
    <circle class="vine-flower" cx="120" cy="70" r="3" />

    <ellipse class="vine-leaf" cx="100" cy="30" rx="6" ry="3" transform="rotate(45 100 30)" />
    <ellipse class="vine-leaf" cx="350" cy="50" rx="6" ry="3" transform="rotate(20 350 50)" />
    <ellipse class="vine-leaf" cx="550" cy="60" rx="6" ry="3" transform="rotate(-30 550 60)" />
    <ellipse class="vine-leaf" cx="180" cy="20" rx="6" ry="3" transform="rotate(-15 180 20)" />
    <ellipse class="vine-leaf" cx="240" cy="80" rx="6" ry="3" transform="rotate(60 240 80)" />
    <ellipse class="vine-leaf" cx="410" cy="35" rx="6" ry="3" transform="rotate(-45 410 35)" />
    <ellipse class="vine-leaf" cx="490" cy="85" rx="6" ry="3" transform="rotate(10 490 85)" />
    <ellipse class="vine-leaf" cx="60" cy="65" rx="6" ry="3" transform="rotate(30 60 65)" />
</svg>
